<mxfile host="app.diagrams.net" modified="2022-03-21T13:43:44.775Z" agent="5.0 (Windows NT 10.0; Win64; x64) AppleWebKit/537.36 (KHTML, like Gecko) Chrome/99.0.4844.51 Safari/537.36 Edg/99.0.1150.39" etag="6ObB2S2VV5XIosANKI-Q" version="17.1.2" type="github">
  <diagram id="C5RBs43oDa-KdzZeNtuy" name="Page-1">
    <mxGraphModel dx="1384" dy="761" grid="1" gridSize="10" guides="1" tooltips="1" connect="1" arrows="1" fold="1" page="1" pageScale="1" pageWidth="827" pageHeight="1169" math="0" shadow="0">
      <root>
        <mxCell id="WIyWlLk6GJQsqaUBKTNV-0" />
        <mxCell id="WIyWlLk6GJQsqaUBKTNV-1" parent="WIyWlLk6GJQsqaUBKTNV-0" />
        <mxCell id="zkfFHV4jXpPFQw0GAbJ--0" value="Monitor" style="swimlane;fontStyle=1;align=center;verticalAlign=top;childLayout=stackLayout;horizontal=1;startSize=26;horizontalStack=0;resizeParent=1;resizeLast=0;collapsible=1;marginBottom=0;rounded=0;shadow=0;strokeWidth=1;fillColor=#fff2cc;strokeColor=#d6b656;" parent="WIyWlLk6GJQsqaUBKTNV-1" vertex="1">
          <mxGeometry x="20" y="180" width="160" height="190" as="geometry">
            <mxRectangle x="230" y="140" width="160" height="26" as="alternateBounds" />
          </mxGeometry>
        </mxCell>
        <mxCell id="zkfFHV4jXpPFQw0GAbJ--1" value="-Â  screen: float" style="text;align=left;verticalAlign=top;spacingLeft=4;spacingRight=4;overflow=hidden;rotatable=0;points=[[0,0.5],[1,0.5]];portConstraint=eastwest;" parent="zkfFHV4jXpPFQw0GAbJ--0" vertex="1">
          <mxGeometry y="26" width="160" height="26" as="geometry" />
        </mxCell>
        <mxCell id="zkfFHV4jXpPFQw0GAbJ--2" value="- energy: float" style="text;align=left;verticalAlign=top;spacingLeft=4;spacingRight=4;overflow=hidden;rotatable=0;points=[[0,0.5],[1,0.5]];portConstraint=eastwest;rounded=0;shadow=0;html=0;" parent="zkfFHV4jXpPFQw0GAbJ--0" vertex="1">
          <mxGeometry y="52" width="160" height="26" as="geometry" />
        </mxCell>
        <mxCell id="zkfFHV4jXpPFQw0GAbJ--3" value="- firm:string" style="text;align=left;verticalAlign=top;spacingLeft=4;spacingRight=4;overflow=hidden;rotatable=0;points=[[0,0.5],[1,0.5]];portConstraint=eastwest;rounded=0;shadow=0;html=0;" parent="zkfFHV4jXpPFQw0GAbJ--0" vertex="1">
          <mxGeometry y="78" width="160" height="26" as="geometry" />
        </mxCell>
        <mxCell id="qRkvfq73xX543C-k9Nee-4" value="- matrix:string" style="text;align=left;verticalAlign=top;spacingLeft=4;spacingRight=4;overflow=hidden;rotatable=0;points=[[0,0.5],[1,0.5]];portConstraint=eastwest;rounded=0;shadow=0;html=0;" vertex="1" parent="zkfFHV4jXpPFQw0GAbJ--0">
          <mxGeometry y="104" width="160" height="26" as="geometry" />
        </mxCell>
        <mxCell id="zkfFHV4jXpPFQw0GAbJ--4" value="" style="line;html=1;strokeWidth=1;align=left;verticalAlign=middle;spacingTop=-1;spacingLeft=3;spacingRight=3;rotatable=0;labelPosition=right;points=[];portConstraint=eastwest;" parent="zkfFHV4jXpPFQw0GAbJ--0" vertex="1">
          <mxGeometry y="130" width="160" height="8" as="geometry" />
        </mxCell>
        <mxCell id="zkfFHV4jXpPFQw0GAbJ--5" value="+ ctor()" style="text;align=left;verticalAlign=top;spacingLeft=4;spacingRight=4;overflow=hidden;rotatable=0;points=[[0,0.5],[1,0.5]];portConstraint=eastwest;" parent="zkfFHV4jXpPFQw0GAbJ--0" vertex="1">
          <mxGeometry y="138" width="160" height="26" as="geometry" />
        </mxCell>
        <mxCell id="qRkvfq73xX543C-k9Nee-109" value="+ ctor(float,float.string,string)" style="text;align=left;verticalAlign=top;spacingLeft=4;spacingRight=4;overflow=hidden;rotatable=0;points=[[0,0.5],[1,0.5]];portConstraint=eastwest;" vertex="1" parent="zkfFHV4jXpPFQw0GAbJ--0">
          <mxGeometry y="164" width="160" height="26" as="geometry" />
        </mxCell>
        <mxCell id="zkfFHV4jXpPFQw0GAbJ--17" value="Mouse" style="swimlane;fontStyle=1;align=center;verticalAlign=top;childLayout=stackLayout;horizontal=1;startSize=26;horizontalStack=0;resizeParent=1;resizeLast=0;collapsible=1;marginBottom=0;rounded=0;shadow=0;strokeWidth=1;fillColor=#fff2cc;strokeColor=#d6b656;" parent="WIyWlLk6GJQsqaUBKTNV-1" vertex="1">
          <mxGeometry x="480" y="330" width="160" height="164" as="geometry">
            <mxRectangle x="550" y="140" width="160" height="26" as="alternateBounds" />
          </mxGeometry>
        </mxCell>
        <mxCell id="zkfFHV4jXpPFQw0GAbJ--18" value="- size:float" style="text;align=left;verticalAlign=top;spacingLeft=4;spacingRight=4;overflow=hidden;rotatable=0;points=[[0,0.5],[1,0.5]];portConstraint=eastwest;" parent="zkfFHV4jXpPFQw0GAbJ--17" vertex="1">
          <mxGeometry y="26" width="160" height="26" as="geometry" />
        </mxCell>
        <mxCell id="zkfFHV4jXpPFQw0GAbJ--19" value="- firm: string" style="text;align=left;verticalAlign=top;spacingLeft=4;spacingRight=4;overflow=hidden;rotatable=0;points=[[0,0.5],[1,0.5]];portConstraint=eastwest;rounded=0;shadow=0;html=0;" parent="zkfFHV4jXpPFQw0GAbJ--17" vertex="1">
          <mxGeometry y="52" width="160" height="26" as="geometry" />
        </mxCell>
        <mxCell id="zkfFHV4jXpPFQw0GAbJ--20" value="- material: string" style="text;align=left;verticalAlign=top;spacingLeft=4;spacingRight=4;overflow=hidden;rotatable=0;points=[[0,0.5],[1,0.5]];portConstraint=eastwest;rounded=0;shadow=0;html=0;" parent="zkfFHV4jXpPFQw0GAbJ--17" vertex="1">
          <mxGeometry y="78" width="160" height="26" as="geometry" />
        </mxCell>
        <mxCell id="zkfFHV4jXpPFQw0GAbJ--23" value="" style="line;html=1;strokeWidth=1;align=left;verticalAlign=middle;spacingTop=-1;spacingLeft=3;spacingRight=3;rotatable=0;labelPosition=right;points=[];portConstraint=eastwest;" parent="zkfFHV4jXpPFQw0GAbJ--17" vertex="1">
          <mxGeometry y="104" width="160" height="8" as="geometry" />
        </mxCell>
        <mxCell id="qRkvfq73xX543C-k9Nee-32" value="+ ctor()" style="text;strokeColor=none;fillColor=none;align=left;verticalAlign=top;spacingLeft=4;spacingRight=4;overflow=hidden;rotatable=0;points=[[0,0.5],[1,0.5]];portConstraint=eastwest;" vertex="1" parent="zkfFHV4jXpPFQw0GAbJ--17">
          <mxGeometry y="112" width="160" height="26" as="geometry" />
        </mxCell>
        <mxCell id="qRkvfq73xX543C-k9Nee-111" value="+ ctor(float,string,string)" style="text;strokeColor=none;fillColor=none;align=left;verticalAlign=top;spacingLeft=4;spacingRight=4;overflow=hidden;rotatable=0;points=[[0,0.5],[1,0.5]];portConstraint=eastwest;" vertex="1" parent="zkfFHV4jXpPFQw0GAbJ--17">
          <mxGeometry y="138" width="160" height="26" as="geometry" />
        </mxCell>
        <mxCell id="qRkvfq73xX543C-k9Nee-0" value="Computer" style="swimlane;fontStyle=1;align=center;verticalAlign=top;childLayout=stackLayout;horizontal=1;startSize=40;horizontalStack=0;resizeParent=1;resizeParentMax=0;resizeLast=0;collapsible=1;marginBottom=0;fillColor=#dae8fc;strokeColor=#6c8ebf;" vertex="1" parent="WIyWlLk6GJQsqaUBKTNV-1">
          <mxGeometry x="290" y="10" width="160" height="178" as="geometry" />
        </mxCell>
        <mxCell id="qRkvfq73xX543C-k9Nee-1" value="- monitor: Monitor" style="text;strokeColor=none;fillColor=none;align=left;verticalAlign=top;spacingLeft=4;spacingRight=4;overflow=hidden;rotatable=0;points=[[0,0.5],[1,0.5]];portConstraint=eastwest;" vertex="1" parent="qRkvfq73xX543C-k9Nee-0">
          <mxGeometry y="40" width="160" height="26" as="geometry" />
        </mxCell>
        <mxCell id="qRkvfq73xX543C-k9Nee-18" value="- unitsystem: Unitsystem" style="text;strokeColor=none;fillColor=none;align=left;verticalAlign=top;spacingLeft=4;spacingRight=4;overflow=hidden;rotatable=0;points=[[0,0.5],[1,0.5]];portConstraint=eastwest;" vertex="1" parent="qRkvfq73xX543C-k9Nee-0">
          <mxGeometry y="66" width="160" height="26" as="geometry" />
        </mxCell>
        <mxCell id="qRkvfq73xX543C-k9Nee-19" value="- keyboard: Keyboard" style="text;strokeColor=none;fillColor=none;align=left;verticalAlign=top;spacingLeft=4;spacingRight=4;overflow=hidden;rotatable=0;points=[[0,0.5],[1,0.5]];portConstraint=eastwest;" vertex="1" parent="qRkvfq73xX543C-k9Nee-0">
          <mxGeometry y="92" width="160" height="26" as="geometry" />
        </mxCell>
        <mxCell id="qRkvfq73xX543C-k9Nee-20" value="- mouse: Mouse" style="text;strokeColor=none;fillColor=none;align=left;verticalAlign=top;spacingLeft=4;spacingRight=4;overflow=hidden;rotatable=0;points=[[0,0.5],[1,0.5]];portConstraint=eastwest;" vertex="1" parent="qRkvfq73xX543C-k9Nee-0">
          <mxGeometry y="118" width="160" height="26" as="geometry" />
        </mxCell>
        <mxCell id="qRkvfq73xX543C-k9Nee-2" value="" style="line;strokeWidth=1;fillColor=none;align=left;verticalAlign=middle;spacingTop=-1;spacingLeft=3;spacingRight=3;rotatable=0;labelPosition=right;points=[];portConstraint=eastwest;" vertex="1" parent="qRkvfq73xX543C-k9Nee-0">
          <mxGeometry y="144" width="160" height="8" as="geometry" />
        </mxCell>
        <mxCell id="qRkvfq73xX543C-k9Nee-3" value="+ ctor()" style="text;strokeColor=none;fillColor=none;align=left;verticalAlign=top;spacingLeft=4;spacingRight=4;overflow=hidden;rotatable=0;points=[[0,0.5],[1,0.5]];portConstraint=eastwest;" vertex="1" parent="qRkvfq73xX543C-k9Nee-0">
          <mxGeometry y="152" width="160" height="26" as="geometry" />
        </mxCell>
        <mxCell id="qRkvfq73xX543C-k9Nee-5" value="Unitsystem" style="swimlane;fontStyle=1;align=center;verticalAlign=top;childLayout=stackLayout;horizontal=1;startSize=26;horizontalStack=0;resizeParent=1;resizeParentMax=0;resizeLast=0;collapsible=1;marginBottom=0;fillColor=#fff2cc;strokeColor=#d6b656;" vertex="1" parent="WIyWlLk6GJQsqaUBKTNV-1">
          <mxGeometry x="880" y="170" width="160" height="242" as="geometry" />
        </mxCell>
        <mxCell id="qRkvfq73xX543C-k9Nee-37" value="- cpu: CPU" style="text;strokeColor=none;fillColor=none;align=left;verticalAlign=top;spacingLeft=4;spacingRight=4;overflow=hidden;rotatable=0;points=[[0,0.5],[1,0.5]];portConstraint=eastwest;" vertex="1" parent="qRkvfq73xX543C-k9Nee-5">
          <mxGeometry y="26" width="160" height="26" as="geometry" />
        </mxCell>
        <mxCell id="qRkvfq73xX543C-k9Nee-39" value="- ram: RAM" style="text;strokeColor=none;fillColor=none;align=left;verticalAlign=top;spacingLeft=4;spacingRight=4;overflow=hidden;rotatable=0;points=[[0,0.5],[1,0.5]];portConstraint=eastwest;" vertex="1" parent="qRkvfq73xX543C-k9Nee-5">
          <mxGeometry y="52" width="160" height="26" as="geometry" />
        </mxCell>
        <mxCell id="qRkvfq73xX543C-k9Nee-38" value="- video: Video" style="text;strokeColor=none;fillColor=none;align=left;verticalAlign=top;spacingLeft=4;spacingRight=4;overflow=hidden;rotatable=0;points=[[0,0.5],[1,0.5]];portConstraint=eastwest;" vertex="1" parent="qRkvfq73xX543C-k9Nee-5">
          <mxGeometry y="78" width="160" height="26" as="geometry" />
        </mxCell>
        <mxCell id="qRkvfq73xX543C-k9Nee-41" value="- sound: Sound" style="text;strokeColor=none;fillColor=none;align=left;verticalAlign=top;spacingLeft=4;spacingRight=4;overflow=hidden;rotatable=0;points=[[0,0.5],[1,0.5]];portConstraint=eastwest;" vertex="1" parent="qRkvfq73xX543C-k9Nee-5">
          <mxGeometry y="104" width="160" height="26" as="geometry" />
        </mxCell>
        <mxCell id="qRkvfq73xX543C-k9Nee-40" value="- member: Member" style="text;strokeColor=none;fillColor=none;align=left;verticalAlign=top;spacingLeft=4;spacingRight=4;overflow=hidden;rotatable=0;points=[[0,0.5],[1,0.5]];portConstraint=eastwest;" vertex="1" parent="qRkvfq73xX543C-k9Nee-5">
          <mxGeometry y="130" width="160" height="26" as="geometry" />
        </mxCell>
        <mxCell id="qRkvfq73xX543C-k9Nee-43" value="- power: Power" style="text;strokeColor=none;fillColor=none;align=left;verticalAlign=top;spacingLeft=4;spacingRight=4;overflow=hidden;rotatable=0;points=[[0,0.5],[1,0.5]];portConstraint=eastwest;" vertex="1" parent="qRkvfq73xX543C-k9Nee-5">
          <mxGeometry y="156" width="160" height="26" as="geometry" />
        </mxCell>
        <mxCell id="qRkvfq73xX543C-k9Nee-42" value="- cooling: Cooling" style="text;strokeColor=none;fillColor=none;align=left;verticalAlign=top;spacingLeft=4;spacingRight=4;overflow=hidden;rotatable=0;points=[[0,0.5],[1,0.5]];portConstraint=eastwest;" vertex="1" parent="qRkvfq73xX543C-k9Nee-5">
          <mxGeometry y="182" width="160" height="26" as="geometry" />
        </mxCell>
        <mxCell id="qRkvfq73xX543C-k9Nee-7" value="" style="line;strokeWidth=1;fillColor=none;align=left;verticalAlign=middle;spacingTop=-1;spacingLeft=3;spacingRight=3;rotatable=0;labelPosition=right;points=[];portConstraint=eastwest;" vertex="1" parent="qRkvfq73xX543C-k9Nee-5">
          <mxGeometry y="208" width="160" height="8" as="geometry" />
        </mxCell>
        <mxCell id="qRkvfq73xX543C-k9Nee-8" value="+ ctor()" style="text;strokeColor=none;fillColor=none;align=left;verticalAlign=top;spacingLeft=4;spacingRight=4;overflow=hidden;rotatable=0;points=[[0,0.5],[1,0.5]];portConstraint=eastwest;" vertex="1" parent="qRkvfq73xX543C-k9Nee-5">
          <mxGeometry y="216" width="160" height="26" as="geometry" />
        </mxCell>
        <mxCell id="qRkvfq73xX543C-k9Nee-9" value="Keyboard" style="swimlane;fontStyle=1;align=center;verticalAlign=top;childLayout=stackLayout;horizontal=1;startSize=26;horizontalStack=0;resizeParent=1;resizeParentMax=0;resizeLast=0;collapsible=1;marginBottom=0;fillColor=#fff2cc;strokeColor=#d6b656;" vertex="1" parent="WIyWlLk6GJQsqaUBKTNV-1">
          <mxGeometry x="250" y="330" width="190" height="190" as="geometry" />
        </mxCell>
        <mxCell id="qRkvfq73xX543C-k9Nee-10" value="- List&lt;Key&gt;: keys" style="text;strokeColor=none;fillColor=none;align=left;verticalAlign=top;spacingLeft=4;spacingRight=4;overflow=hidden;rotatable=0;points=[[0,0.5],[1,0.5]];portConstraint=eastwest;" vertex="1" parent="qRkvfq73xX543C-k9Nee-9">
          <mxGeometry y="26" width="190" height="26" as="geometry" />
        </mxCell>
        <mxCell id="qRkvfq73xX543C-k9Nee-21" value="- firm: string" style="text;strokeColor=none;fillColor=none;align=left;verticalAlign=top;spacingLeft=4;spacingRight=4;overflow=hidden;rotatable=0;points=[[0,0.5],[1,0.5]];portConstraint=eastwest;" vertex="1" parent="qRkvfq73xX543C-k9Nee-9">
          <mxGeometry y="52" width="190" height="26" as="geometry" />
        </mxCell>
        <mxCell id="qRkvfq73xX543C-k9Nee-22" value="- material: string" style="text;strokeColor=none;fillColor=none;align=left;verticalAlign=top;spacingLeft=4;spacingRight=4;overflow=hidden;rotatable=0;points=[[0,0.5],[1,0.5]];portConstraint=eastwest;" vertex="1" parent="qRkvfq73xX543C-k9Nee-9">
          <mxGeometry y="78" width="190" height="26" as="geometry" />
        </mxCell>
        <mxCell id="qRkvfq73xX543C-k9Nee-23" value="- size: float" style="text;strokeColor=none;fillColor=none;align=left;verticalAlign=top;spacingLeft=4;spacingRight=4;overflow=hidden;rotatable=0;points=[[0,0.5],[1,0.5]];portConstraint=eastwest;" vertex="1" parent="qRkvfq73xX543C-k9Nee-9">
          <mxGeometry y="104" width="190" height="26" as="geometry" />
        </mxCell>
        <mxCell id="qRkvfq73xX543C-k9Nee-11" value="" style="line;strokeWidth=1;fillColor=none;align=left;verticalAlign=middle;spacingTop=-1;spacingLeft=3;spacingRight=3;rotatable=0;labelPosition=right;points=[];portConstraint=eastwest;" vertex="1" parent="qRkvfq73xX543C-k9Nee-9">
          <mxGeometry y="130" width="190" height="8" as="geometry" />
        </mxCell>
        <mxCell id="qRkvfq73xX543C-k9Nee-12" value="+ ctor()" style="text;strokeColor=none;fillColor=none;align=left;verticalAlign=top;spacingLeft=4;spacingRight=4;overflow=hidden;rotatable=0;points=[[0,0.5],[1,0.5]];portConstraint=eastwest;" vertex="1" parent="qRkvfq73xX543C-k9Nee-9">
          <mxGeometry y="138" width="190" height="26" as="geometry" />
        </mxCell>
        <mxCell id="qRkvfq73xX543C-k9Nee-110" value="+ ctor(List,string.string,float)" style="text;align=left;verticalAlign=top;spacingLeft=4;spacingRight=4;overflow=hidden;rotatable=0;points=[[0,0.5],[1,0.5]];portConstraint=eastwest;" vertex="1" parent="qRkvfq73xX543C-k9Nee-9">
          <mxGeometry y="164" width="190" height="26" as="geometry" />
        </mxCell>
        <mxCell id="qRkvfq73xX543C-k9Nee-14" value="1" style="endArrow=open;html=1;endSize=12;startArrow=diamondThin;startSize=14;startFill=1;edgeStyle=orthogonalEdgeStyle;align=left;verticalAlign=bottom;rounded=0;exitX=-0.02;exitY=0.095;exitDx=0;exitDy=0;exitPerimeter=0;" edge="1" parent="WIyWlLk6GJQsqaUBKTNV-1" source="qRkvfq73xX543C-k9Nee-0">
          <mxGeometry x="-1" y="3" relative="1" as="geometry">
            <mxPoint x="260" y="40" as="sourcePoint" />
            <mxPoint x="90" y="180" as="targetPoint" />
            <Array as="points">
              <mxPoint x="90" y="27" />
            </Array>
          </mxGeometry>
        </mxCell>
        <mxCell id="qRkvfq73xX543C-k9Nee-15" value="1" style="endArrow=open;html=1;endSize=12;startArrow=diamondThin;startSize=14;startFill=1;edgeStyle=orthogonalEdgeStyle;align=left;verticalAlign=bottom;rounded=0;entryX=0.5;entryY=0;entryDx=0;entryDy=0;" edge="1" parent="WIyWlLk6GJQsqaUBKTNV-1" target="qRkvfq73xX543C-k9Nee-5">
          <mxGeometry x="-1" y="3" relative="1" as="geometry">
            <mxPoint x="450" y="20" as="sourcePoint" />
            <mxPoint x="610" y="20" as="targetPoint" />
          </mxGeometry>
        </mxCell>
        <mxCell id="qRkvfq73xX543C-k9Nee-16" value="1" style="endArrow=open;html=1;endSize=12;startArrow=diamondThin;startSize=14;startFill=1;edgeStyle=orthogonalEdgeStyle;align=left;verticalAlign=bottom;rounded=0;entryX=0.25;entryY=0;entryDx=0;entryDy=0;" edge="1" parent="WIyWlLk6GJQsqaUBKTNV-1" target="qRkvfq73xX543C-k9Nee-9">
          <mxGeometry x="-1" y="3" relative="1" as="geometry">
            <mxPoint x="290" y="40" as="sourcePoint" />
            <mxPoint x="290" y="274" as="targetPoint" />
            <Array as="points">
              <mxPoint x="260" y="40" />
              <mxPoint x="260" y="310" />
              <mxPoint x="290" y="310" />
            </Array>
          </mxGeometry>
        </mxCell>
        <mxCell id="qRkvfq73xX543C-k9Nee-17" value="1" style="endArrow=open;html=1;endSize=12;startArrow=diamondThin;startSize=14;startFill=1;edgeStyle=orthogonalEdgeStyle;align=left;verticalAlign=bottom;rounded=0;entryX=0.5;entryY=0;entryDx=0;entryDy=0;" edge="1" parent="WIyWlLk6GJQsqaUBKTNV-1" target="zkfFHV4jXpPFQw0GAbJ--17">
          <mxGeometry x="-1" y="3" relative="1" as="geometry">
            <mxPoint x="450" y="30" as="sourcePoint" />
            <mxPoint x="610" y="30" as="targetPoint" />
            <Array as="points">
              <mxPoint x="560" y="30" />
            </Array>
          </mxGeometry>
        </mxCell>
        <mxCell id="qRkvfq73xX543C-k9Nee-24" value="Key" style="swimlane;fontStyle=1;align=center;verticalAlign=top;childLayout=stackLayout;horizontal=1;startSize=26;horizontalStack=0;resizeParent=1;resizeParentMax=0;resizeLast=0;collapsible=1;marginBottom=0;fillColor=#fff2cc;strokeColor=#d6b656;" vertex="1" parent="WIyWlLk6GJQsqaUBKTNV-1">
          <mxGeometry x="250" y="630" width="160" height="112" as="geometry" />
        </mxCell>
        <mxCell id="qRkvfq73xX543C-k9Nee-25" value="- size:float" style="text;strokeColor=none;fillColor=none;align=left;verticalAlign=top;spacingLeft=4;spacingRight=4;overflow=hidden;rotatable=0;points=[[0,0.5],[1,0.5]];portConstraint=eastwest;" vertex="1" parent="qRkvfq73xX543C-k9Nee-24">
          <mxGeometry y="26" width="160" height="26" as="geometry" />
        </mxCell>
        <mxCell id="qRkvfq73xX543C-k9Nee-28" value="- simbol:string" style="text;strokeColor=none;fillColor=none;align=left;verticalAlign=top;spacingLeft=4;spacingRight=4;overflow=hidden;rotatable=0;points=[[0,0.5],[1,0.5]];portConstraint=eastwest;" vertex="1" parent="qRkvfq73xX543C-k9Nee-24">
          <mxGeometry y="52" width="160" height="26" as="geometry" />
        </mxCell>
        <mxCell id="qRkvfq73xX543C-k9Nee-26" value="" style="line;strokeWidth=1;fillColor=none;align=left;verticalAlign=middle;spacingTop=-1;spacingLeft=3;spacingRight=3;rotatable=0;labelPosition=right;points=[];portConstraint=eastwest;" vertex="1" parent="qRkvfq73xX543C-k9Nee-24">
          <mxGeometry y="78" width="160" height="8" as="geometry" />
        </mxCell>
        <mxCell id="qRkvfq73xX543C-k9Nee-27" value="+ ctor()" style="text;strokeColor=none;fillColor=none;align=left;verticalAlign=top;spacingLeft=4;spacingRight=4;overflow=hidden;rotatable=0;points=[[0,0.5],[1,0.5]];portConstraint=eastwest;" vertex="1" parent="qRkvfq73xX543C-k9Nee-24">
          <mxGeometry y="86" width="160" height="26" as="geometry" />
        </mxCell>
        <mxCell id="qRkvfq73xX543C-k9Nee-29" value="" style="endArrow=open;endFill=1;endSize=12;html=1;rounded=0;entryX=0.438;entryY=0;entryDx=0;entryDy=0;entryPerimeter=0;exitX=0.982;exitY=-0.09;exitDx=0;exitDy=0;exitPerimeter=0;" edge="1" parent="WIyWlLk6GJQsqaUBKTNV-1" source="qRkvfq73xX543C-k9Nee-30" target="qRkvfq73xX543C-k9Nee-24">
          <mxGeometry width="160" relative="1" as="geometry">
            <mxPoint x="320" y="494" as="sourcePoint" />
            <mxPoint x="320" y="550" as="targetPoint" />
          </mxGeometry>
        </mxCell>
        <mxCell id="qRkvfq73xX543C-k9Nee-30" value="1" style="text;strokeColor=none;fillColor=none;align=left;verticalAlign=top;spacingLeft=4;spacingRight=4;overflow=hidden;rotatable=0;points=[[0,0.5],[1,0.5]];portConstraint=eastwest;fontStyle=1" vertex="1" parent="WIyWlLk6GJQsqaUBKTNV-1">
          <mxGeometry x="290" y="524" width="30" height="26" as="geometry" />
        </mxCell>
        <mxCell id="qRkvfq73xX543C-k9Nee-31" value="*" style="text;strokeColor=none;fillColor=none;align=left;verticalAlign=top;spacingLeft=4;spacingRight=4;overflow=hidden;rotatable=0;points=[[0,0.5],[1,0.5]];portConstraint=eastwest;fontStyle=1;fontSize=22;" vertex="1" parent="WIyWlLk6GJQsqaUBKTNV-1">
          <mxGeometry x="290" y="604" width="20" height="26" as="geometry" />
        </mxCell>
        <mxCell id="qRkvfq73xX543C-k9Nee-33" value="1" style="endArrow=open;html=1;endSize=12;startArrow=diamondThin;startSize=14;startFill=0;edgeStyle=orthogonalEdgeStyle;align=left;verticalAlign=bottom;rounded=0;fontSize=22;exitX=0.36;exitY=-0.023;exitDx=0;exitDy=0;exitPerimeter=0;entryX=0;entryY=0;entryDx=0;entryDy=0;" edge="1" parent="WIyWlLk6GJQsqaUBKTNV-1" source="qRkvfq73xX543C-k9Nee-9" target="qRkvfq73xX543C-k9Nee-5">
          <mxGeometry x="-0.8613" y="-12" relative="1" as="geometry">
            <mxPoint x="180" y="190" as="sourcePoint" />
            <mxPoint x="648" y="150" as="targetPoint" />
            <Array as="points">
              <mxPoint x="308" y="210" />
              <mxPoint x="620" y="210" />
              <mxPoint x="620" y="130" />
            </Array>
            <mxPoint as="offset" />
          </mxGeometry>
        </mxCell>
        <mxCell id="qRkvfq73xX543C-k9Nee-35" value="1" style="endArrow=open;html=1;endSize=12;startArrow=diamondThin;startSize=14;startFill=0;edgeStyle=orthogonalEdgeStyle;align=left;verticalAlign=bottom;rounded=0;fontSize=22;exitX=0.367;exitY=-0.004;exitDx=0;exitDy=0;exitPerimeter=0;entryX=0.347;entryY=-0.016;entryDx=0;entryDy=0;entryPerimeter=0;" edge="1" parent="WIyWlLk6GJQsqaUBKTNV-1" source="zkfFHV4jXpPFQw0GAbJ--17" target="qRkvfq73xX543C-k9Nee-5">
          <mxGeometry x="-0.8616" y="19" relative="1" as="geometry">
            <mxPoint x="380" y="210" as="sourcePoint" />
            <mxPoint x="649.2" y="158.99" as="targetPoint" />
            <Array as="points">
              <mxPoint x="539" y="230" />
              <mxPoint x="630" y="230" />
              <mxPoint x="630" y="140" />
              <mxPoint x="936" y="140" />
              <mxPoint x="936" y="160" />
            </Array>
            <mxPoint as="offset" />
          </mxGeometry>
        </mxCell>
        <mxCell id="qRkvfq73xX543C-k9Nee-36" value="1" style="endArrow=open;html=1;endSize=12;startArrow=diamondThin;startSize=14;startFill=0;edgeStyle=orthogonalEdgeStyle;align=left;verticalAlign=bottom;rounded=0;fontSize=22;" edge="1" parent="WIyWlLk6GJQsqaUBKTNV-1">
          <mxGeometry x="-1" y="3" relative="1" as="geometry">
            <mxPoint x="180" y="200" as="sourcePoint" />
            <mxPoint x="880" y="190" as="targetPoint" />
            <Array as="points">
              <mxPoint x="490" y="200" />
              <mxPoint x="490" y="100" />
              <mxPoint x="690" y="100" />
              <mxPoint x="690" y="170" />
              <mxPoint x="850" y="170" />
              <mxPoint x="850" y="190" />
              <mxPoint x="876" y="190" />
            </Array>
          </mxGeometry>
        </mxCell>
        <mxCell id="qRkvfq73xX543C-k9Nee-44" value="CPU" style="swimlane;fontStyle=1;align=center;verticalAlign=top;childLayout=stackLayout;horizontal=1;startSize=26;horizontalStack=0;resizeParent=1;resizeParentMax=0;resizeLast=0;collapsible=1;marginBottom=0;fontSize=22;fillColor=#fff2cc;strokeColor=#d6b656;" vertex="1" parent="WIyWlLk6GJQsqaUBKTNV-1">
          <mxGeometry x="750" y="550" width="300" height="310" as="geometry" />
        </mxCell>
        <mxCell id="qRkvfq73xX543C-k9Nee-45" value="- firm: string" style="text;strokeColor=none;fillColor=none;align=left;verticalAlign=top;spacingLeft=4;spacingRight=4;overflow=hidden;rotatable=0;points=[[0,0.5],[1,0.5]];portConstraint=eastwest;fontSize=22;" vertex="1" parent="qRkvfq73xX543C-k9Nee-44">
          <mxGeometry y="26" width="300" height="40" as="geometry" />
        </mxCell>
        <mxCell id="qRkvfq73xX543C-k9Nee-49" value="- series: string" style="text;strokeColor=none;fillColor=none;align=left;verticalAlign=top;spacingLeft=4;spacingRight=4;overflow=hidden;rotatable=0;points=[[0,0.5],[1,0.5]];portConstraint=eastwest;fontSize=22;" vertex="1" parent="qRkvfq73xX543C-k9Nee-44">
          <mxGeometry y="66" width="300" height="44" as="geometry" />
        </mxCell>
        <mxCell id="qRkvfq73xX543C-k9Nee-48" value="- socket: string" style="text;strokeColor=none;fillColor=none;align=left;verticalAlign=top;spacingLeft=4;spacingRight=4;overflow=hidden;rotatable=0;points=[[0,0.5],[1,0.5]];portConstraint=eastwest;fontSize=22;" vertex="1" parent="qRkvfq73xX543C-k9Nee-44">
          <mxGeometry y="110" width="300" height="44" as="geometry" />
        </mxCell>
        <mxCell id="qRkvfq73xX543C-k9Nee-50" value="- core: int" style="text;strokeColor=none;fillColor=none;align=left;verticalAlign=top;spacingLeft=4;spacingRight=4;overflow=hidden;rotatable=0;points=[[0,0.5],[1,0.5]];portConstraint=eastwest;fontSize=22;" vertex="1" parent="qRkvfq73xX543C-k9Nee-44">
          <mxGeometry y="154" width="300" height="44" as="geometry" />
        </mxCell>
        <mxCell id="qRkvfq73xX543C-k9Nee-46" value="" style="line;strokeWidth=1;fillColor=none;align=left;verticalAlign=middle;spacingTop=-1;spacingLeft=3;spacingRight=3;rotatable=0;labelPosition=right;points=[];portConstraint=eastwest;fontSize=22;" vertex="1" parent="qRkvfq73xX543C-k9Nee-44">
          <mxGeometry y="198" width="300" height="8" as="geometry" />
        </mxCell>
        <mxCell id="qRkvfq73xX543C-k9Nee-112" value="+ ctor()" style="text;strokeColor=none;fillColor=none;align=left;verticalAlign=top;spacingLeft=4;spacingRight=4;overflow=hidden;rotatable=0;points=[[0,0.5],[1,0.5]];portConstraint=eastwest;fontSize=22;" vertex="1" parent="qRkvfq73xX543C-k9Nee-44">
          <mxGeometry y="206" width="300" height="52" as="geometry" />
        </mxCell>
        <mxCell id="qRkvfq73xX543C-k9Nee-47" value="+ ctor(string,string,string,int)" style="text;strokeColor=none;fillColor=none;align=left;verticalAlign=top;spacingLeft=4;spacingRight=4;overflow=hidden;rotatable=0;points=[[0,0.5],[1,0.5]];portConstraint=eastwest;fontSize=22;" vertex="1" parent="qRkvfq73xX543C-k9Nee-44">
          <mxGeometry y="258" width="300" height="52" as="geometry" />
        </mxCell>
        <mxCell id="qRkvfq73xX543C-k9Nee-51" value="1" style="endArrow=open;html=1;endSize=12;startArrow=diamondThin;startSize=14;startFill=0;edgeStyle=orthogonalEdgeStyle;align=left;verticalAlign=bottom;rounded=0;fontSize=22;entryX=0.369;entryY=-0.015;entryDx=0;entryDy=0;entryPerimeter=0;" edge="1" parent="WIyWlLk6GJQsqaUBKTNV-1" target="qRkvfq73xX543C-k9Nee-44">
          <mxGeometry x="-0.6184" y="20" relative="1" as="geometry">
            <mxPoint x="900" y="412" as="sourcePoint" />
            <mxPoint x="1060" y="412" as="targetPoint" />
            <mxPoint as="offset" />
          </mxGeometry>
        </mxCell>
        <mxCell id="qRkvfq73xX543C-k9Nee-52" value="RAM" style="swimlane;fontStyle=1;align=center;verticalAlign=top;childLayout=stackLayout;horizontal=1;startSize=26;horizontalStack=0;resizeParent=1;resizeParentMax=0;resizeLast=0;collapsible=1;marginBottom=0;fontSize=22;fillColor=#fff2cc;strokeColor=#d6b656;" vertex="1" parent="WIyWlLk6GJQsqaUBKTNV-1">
          <mxGeometry x="1070" y="550" width="260" height="234" as="geometry" />
        </mxCell>
        <mxCell id="qRkvfq73xX543C-k9Nee-53" value="- firm: stringÂ " style="text;strokeColor=none;fillColor=none;align=left;verticalAlign=top;spacingLeft=4;spacingRight=4;overflow=hidden;rotatable=0;points=[[0,0.5],[1,0.5]];portConstraint=eastwest;fontSize=22;" vertex="1" parent="qRkvfq73xX543C-k9Nee-52">
          <mxGeometry y="26" width="260" height="26" as="geometry" />
        </mxCell>
        <mxCell id="qRkvfq73xX543C-k9Nee-56" value="- type: stringÂ " style="text;strokeColor=none;fillColor=none;align=left;verticalAlign=top;spacingLeft=4;spacingRight=4;overflow=hidden;rotatable=0;points=[[0,0.5],[1,0.5]];portConstraint=eastwest;fontSize=22;" vertex="1" parent="qRkvfq73xX543C-k9Nee-52">
          <mxGeometry y="52" width="260" height="26" as="geometry" />
        </mxCell>
        <mxCell id="qRkvfq73xX543C-k9Nee-57" value="- number: intÂ " style="text;strokeColor=none;fillColor=none;align=left;verticalAlign=top;spacingLeft=4;spacingRight=4;overflow=hidden;rotatable=0;points=[[0,0.5],[1,0.5]];portConstraint=eastwest;fontSize=22;" vertex="1" parent="qRkvfq73xX543C-k9Nee-52">
          <mxGeometry y="78" width="260" height="26" as="geometry" />
        </mxCell>
        <mxCell id="qRkvfq73xX543C-k9Nee-58" value="- member: intÂ " style="text;strokeColor=none;fillColor=none;align=left;verticalAlign=top;spacingLeft=4;spacingRight=4;overflow=hidden;rotatable=0;points=[[0,0.5],[1,0.5]];portConstraint=eastwest;fontSize=22;" vertex="1" parent="qRkvfq73xX543C-k9Nee-52">
          <mxGeometry y="104" width="260" height="26" as="geometry" />
        </mxCell>
        <mxCell id="qRkvfq73xX543C-k9Nee-54" value="" style="line;strokeWidth=1;fillColor=none;align=left;verticalAlign=middle;spacingTop=-1;spacingLeft=3;spacingRight=3;rotatable=0;labelPosition=right;points=[];portConstraint=eastwest;fontSize=22;" vertex="1" parent="qRkvfq73xX543C-k9Nee-52">
          <mxGeometry y="130" width="260" height="8" as="geometry" />
        </mxCell>
        <mxCell id="qRkvfq73xX543C-k9Nee-113" value="+ ctor()" style="text;strokeColor=none;fillColor=none;align=left;verticalAlign=top;spacingLeft=4;spacingRight=4;overflow=hidden;rotatable=0;points=[[0,0.5],[1,0.5]];portConstraint=eastwest;fontSize=22;" vertex="1" parent="qRkvfq73xX543C-k9Nee-52">
          <mxGeometry y="138" width="260" height="48" as="geometry" />
        </mxCell>
        <mxCell id="qRkvfq73xX543C-k9Nee-55" value="+ ctor(string,string,int,int)" style="text;strokeColor=none;fillColor=none;align=left;verticalAlign=top;spacingLeft=4;spacingRight=4;overflow=hidden;rotatable=0;points=[[0,0.5],[1,0.5]];portConstraint=eastwest;fontSize=22;" vertex="1" parent="qRkvfq73xX543C-k9Nee-52">
          <mxGeometry y="186" width="260" height="48" as="geometry" />
        </mxCell>
        <mxCell id="qRkvfq73xX543C-k9Nee-59" value="1" style="endArrow=open;html=1;endSize=12;startArrow=diamondThin;startSize=14;startFill=0;edgeStyle=orthogonalEdgeStyle;align=left;verticalAlign=bottom;rounded=0;fontSize=22;exitX=0.558;exitY=1.023;exitDx=0;exitDy=0;exitPerimeter=0;entryX=0.387;entryY=-0.012;entryDx=0;entryDy=0;entryPerimeter=0;" edge="1" parent="WIyWlLk6GJQsqaUBKTNV-1" source="qRkvfq73xX543C-k9Nee-8" target="qRkvfq73xX543C-k9Nee-52">
          <mxGeometry x="-1" y="3" relative="1" as="geometry">
            <mxPoint x="960" y="470" as="sourcePoint" />
            <mxPoint x="1120" y="470" as="targetPoint" />
          </mxGeometry>
        </mxCell>
        <mxCell id="qRkvfq73xX543C-k9Nee-60" value="Video" style="swimlane;fontStyle=1;align=center;verticalAlign=top;childLayout=stackLayout;horizontal=1;startSize=26;horizontalStack=0;resizeParent=1;resizeParentMax=0;resizeLast=0;collapsible=1;marginBottom=0;fontSize=22;fillColor=#fff2cc;strokeColor=#d6b656;" vertex="1" parent="WIyWlLk6GJQsqaUBKTNV-1">
          <mxGeometry x="1350" y="550" width="240" height="208" as="geometry" />
        </mxCell>
        <mxCell id="qRkvfq73xX543C-k9Nee-61" value="- firm: stringÂ " style="text;strokeColor=none;fillColor=none;align=left;verticalAlign=top;spacingLeft=4;spacingRight=4;overflow=hidden;rotatable=0;points=[[0,0.5],[1,0.5]];portConstraint=eastwest;fontSize=22;" vertex="1" parent="qRkvfq73xX543C-k9Nee-60">
          <mxGeometry y="26" width="240" height="26" as="geometry" />
        </mxCell>
        <mxCell id="qRkvfq73xX543C-k9Nee-62" value="- type: stringÂ " style="text;strokeColor=none;fillColor=none;align=left;verticalAlign=top;spacingLeft=4;spacingRight=4;overflow=hidden;rotatable=0;points=[[0,0.5],[1,0.5]];portConstraint=eastwest;fontSize=22;" vertex="1" parent="qRkvfq73xX543C-k9Nee-60">
          <mxGeometry y="52" width="240" height="26" as="geometry" />
        </mxCell>
        <mxCell id="qRkvfq73xX543C-k9Nee-64" value="- member: intÂ " style="text;strokeColor=none;fillColor=none;align=left;verticalAlign=top;spacingLeft=4;spacingRight=4;overflow=hidden;rotatable=0;points=[[0,0.5],[1,0.5]];portConstraint=eastwest;fontSize=22;" vertex="1" parent="qRkvfq73xX543C-k9Nee-60">
          <mxGeometry y="78" width="240" height="26" as="geometry" />
        </mxCell>
        <mxCell id="qRkvfq73xX543C-k9Nee-65" value="" style="line;strokeWidth=1;fillColor=none;align=left;verticalAlign=middle;spacingTop=-1;spacingLeft=3;spacingRight=3;rotatable=0;labelPosition=right;points=[];portConstraint=eastwest;fontSize=22;" vertex="1" parent="qRkvfq73xX543C-k9Nee-60">
          <mxGeometry y="104" width="240" height="8" as="geometry" />
        </mxCell>
        <mxCell id="qRkvfq73xX543C-k9Nee-114" value="+ ctor()" style="text;strokeColor=none;fillColor=none;align=left;verticalAlign=top;spacingLeft=4;spacingRight=4;overflow=hidden;rotatable=0;points=[[0,0.5],[1,0.5]];portConstraint=eastwest;fontSize=22;" vertex="1" parent="qRkvfq73xX543C-k9Nee-60">
          <mxGeometry y="112" width="240" height="48" as="geometry" />
        </mxCell>
        <mxCell id="qRkvfq73xX543C-k9Nee-66" value="+ ctor(string,string,int)" style="text;strokeColor=none;fillColor=none;align=left;verticalAlign=top;spacingLeft=4;spacingRight=4;overflow=hidden;rotatable=0;points=[[0,0.5],[1,0.5]];portConstraint=eastwest;fontSize=22;" vertex="1" parent="qRkvfq73xX543C-k9Nee-60">
          <mxGeometry y="160" width="240" height="48" as="geometry" />
        </mxCell>
        <mxCell id="qRkvfq73xX543C-k9Nee-67" value="1" style="endArrow=open;html=1;endSize=12;startArrow=diamondThin;startSize=14;startFill=0;edgeStyle=orthogonalEdgeStyle;align=left;verticalAlign=bottom;rounded=0;fontSize=22;entryX=0.417;entryY=0;entryDx=0;entryDy=0;entryPerimeter=0;" edge="1" parent="WIyWlLk6GJQsqaUBKTNV-1" target="qRkvfq73xX543C-k9Nee-60">
          <mxGeometry x="-1" y="3" relative="1" as="geometry">
            <mxPoint x="1000" y="412" as="sourcePoint" />
            <mxPoint x="1160" y="412" as="targetPoint" />
            <Array as="points">
              <mxPoint x="1000" y="450" />
              <mxPoint x="1450" y="450" />
            </Array>
          </mxGeometry>
        </mxCell>
        <mxCell id="qRkvfq73xX543C-k9Nee-68" value="Member" style="swimlane;fontStyle=1;align=center;verticalAlign=top;childLayout=stackLayout;horizontal=1;startSize=26;horizontalStack=0;resizeParent=1;resizeParentMax=0;resizeLast=0;collapsible=1;marginBottom=0;fontSize=22;fillColor=#fff2cc;strokeColor=#d6b656;" vertex="1" parent="WIyWlLk6GJQsqaUBKTNV-1">
          <mxGeometry x="1640" y="550" width="240" height="208" as="geometry" />
        </mxCell>
        <mxCell id="qRkvfq73xX543C-k9Nee-69" value="- firm: stringÂ " style="text;strokeColor=none;fillColor=none;align=left;verticalAlign=top;spacingLeft=4;spacingRight=4;overflow=hidden;rotatable=0;points=[[0,0.5],[1,0.5]];portConstraint=eastwest;fontSize=22;" vertex="1" parent="qRkvfq73xX543C-k9Nee-68">
          <mxGeometry y="26" width="240" height="26" as="geometry" />
        </mxCell>
        <mxCell id="qRkvfq73xX543C-k9Nee-70" value="- type: stringÂ " style="text;strokeColor=none;fillColor=none;align=left;verticalAlign=top;spacingLeft=4;spacingRight=4;overflow=hidden;rotatable=0;points=[[0,0.5],[1,0.5]];portConstraint=eastwest;fontSize=22;" vertex="1" parent="qRkvfq73xX543C-k9Nee-68">
          <mxGeometry y="52" width="240" height="26" as="geometry" />
        </mxCell>
        <mxCell id="qRkvfq73xX543C-k9Nee-71" value="- member: intÂ " style="text;strokeColor=none;fillColor=none;align=left;verticalAlign=top;spacingLeft=4;spacingRight=4;overflow=hidden;rotatable=0;points=[[0,0.5],[1,0.5]];portConstraint=eastwest;fontSize=22;" vertex="1" parent="qRkvfq73xX543C-k9Nee-68">
          <mxGeometry y="78" width="240" height="26" as="geometry" />
        </mxCell>
        <mxCell id="qRkvfq73xX543C-k9Nee-72" value="" style="line;strokeWidth=1;fillColor=none;align=left;verticalAlign=middle;spacingTop=-1;spacingLeft=3;spacingRight=3;rotatable=0;labelPosition=right;points=[];portConstraint=eastwest;fontSize=22;" vertex="1" parent="qRkvfq73xX543C-k9Nee-68">
          <mxGeometry y="104" width="240" height="8" as="geometry" />
        </mxCell>
        <mxCell id="qRkvfq73xX543C-k9Nee-73" value="+ ctor()" style="text;strokeColor=none;fillColor=none;align=left;verticalAlign=top;spacingLeft=4;spacingRight=4;overflow=hidden;rotatable=0;points=[[0,0.5],[1,0.5]];portConstraint=eastwest;fontSize=22;" vertex="1" parent="qRkvfq73xX543C-k9Nee-68">
          <mxGeometry y="112" width="240" height="48" as="geometry" />
        </mxCell>
        <mxCell id="qRkvfq73xX543C-k9Nee-115" value="+ ctor(string,string,int)" style="text;strokeColor=none;fillColor=none;align=left;verticalAlign=top;spacingLeft=4;spacingRight=4;overflow=hidden;rotatable=0;points=[[0,0.5],[1,0.5]];portConstraint=eastwest;fontSize=22;" vertex="1" parent="qRkvfq73xX543C-k9Nee-68">
          <mxGeometry y="160" width="240" height="48" as="geometry" />
        </mxCell>
        <mxCell id="qRkvfq73xX543C-k9Nee-74" value="SSD" style="swimlane;fontStyle=1;align=center;verticalAlign=top;childLayout=stackLayout;horizontal=1;startSize=26;horizontalStack=0;resizeParent=1;resizeParentMax=0;resizeLast=0;collapsible=1;marginBottom=0;fontSize=22;fillColor=#fff2cc;strokeColor=#d6b656;" vertex="1" parent="WIyWlLk6GJQsqaUBKTNV-1">
          <mxGeometry x="1480" y="870" width="290" height="138" as="geometry" />
        </mxCell>
        <mxCell id="qRkvfq73xX543C-k9Nee-75" value="- formfactor:string" style="text;strokeColor=none;fillColor=none;align=left;verticalAlign=top;spacingLeft=4;spacingRight=4;overflow=hidden;rotatable=0;points=[[0,0.5],[1,0.5]];portConstraint=eastwest;fontSize=22;" vertex="1" parent="qRkvfq73xX543C-k9Nee-74">
          <mxGeometry y="26" width="290" height="26" as="geometry" />
        </mxCell>
        <mxCell id="qRkvfq73xX543C-k9Nee-76" value="" style="line;strokeWidth=1;fillColor=none;align=left;verticalAlign=middle;spacingTop=-1;spacingLeft=3;spacingRight=3;rotatable=0;labelPosition=right;points=[];portConstraint=eastwest;fontSize=22;" vertex="1" parent="qRkvfq73xX543C-k9Nee-74">
          <mxGeometry y="52" width="290" height="8" as="geometry" />
        </mxCell>
        <mxCell id="qRkvfq73xX543C-k9Nee-118" value="+ ctor()" style="text;strokeColor=none;fillColor=none;align=left;verticalAlign=top;spacingLeft=4;spacingRight=4;overflow=hidden;rotatable=0;points=[[0,0.5],[1,0.5]];portConstraint=eastwest;fontSize=22;" vertex="1" parent="qRkvfq73xX543C-k9Nee-74">
          <mxGeometry y="60" width="290" height="30" as="geometry" />
        </mxCell>
        <mxCell id="qRkvfq73xX543C-k9Nee-119" value="+ ctor(string,string,int,string)" style="text;strokeColor=none;fillColor=none;align=left;verticalAlign=top;spacingLeft=4;spacingRight=4;overflow=hidden;rotatable=0;points=[[0,0.5],[1,0.5]];portConstraint=eastwest;fontSize=22;" vertex="1" parent="qRkvfq73xX543C-k9Nee-74">
          <mxGeometry y="90" width="290" height="48" as="geometry" />
        </mxCell>
        <mxCell id="qRkvfq73xX543C-k9Nee-78" value="HDD" style="swimlane;fontStyle=1;align=center;verticalAlign=top;childLayout=stackLayout;horizontal=1;startSize=26;horizontalStack=0;resizeParent=1;resizeParentMax=0;resizeLast=0;collapsible=1;marginBottom=0;fontSize=22;fillColor=#fff2cc;strokeColor=#d6b656;" vertex="1" parent="WIyWlLk6GJQsqaUBKTNV-1">
          <mxGeometry x="1810" y="870" width="290" height="138" as="geometry" />
        </mxCell>
        <mxCell id="qRkvfq73xX543C-k9Nee-79" value="- fast:int" style="text;strokeColor=none;fillColor=none;align=left;verticalAlign=top;spacingLeft=4;spacingRight=4;overflow=hidden;rotatable=0;points=[[0,0.5],[1,0.5]];portConstraint=eastwest;fontSize=22;" vertex="1" parent="qRkvfq73xX543C-k9Nee-78">
          <mxGeometry y="26" width="290" height="26" as="geometry" />
        </mxCell>
        <mxCell id="qRkvfq73xX543C-k9Nee-80" value="" style="line;strokeWidth=1;fillColor=none;align=left;verticalAlign=middle;spacingTop=-1;spacingLeft=3;spacingRight=3;rotatable=0;labelPosition=right;points=[];portConstraint=eastwest;fontSize=22;" vertex="1" parent="qRkvfq73xX543C-k9Nee-78">
          <mxGeometry y="52" width="290" height="8" as="geometry" />
        </mxCell>
        <mxCell id="qRkvfq73xX543C-k9Nee-81" value="+ ctor()" style="text;strokeColor=none;fillColor=none;align=left;verticalAlign=top;spacingLeft=4;spacingRight=4;overflow=hidden;rotatable=0;points=[[0,0.5],[1,0.5]];portConstraint=eastwest;fontSize=22;" vertex="1" parent="qRkvfq73xX543C-k9Nee-78">
          <mxGeometry y="60" width="290" height="30" as="geometry" />
        </mxCell>
        <mxCell id="qRkvfq73xX543C-k9Nee-122" value="+ ctor(string,string,int,int)" style="text;strokeColor=none;fillColor=none;align=left;verticalAlign=top;spacingLeft=4;spacingRight=4;overflow=hidden;rotatable=0;points=[[0,0.5],[1,0.5]];portConstraint=eastwest;fontSize=22;" vertex="1" parent="qRkvfq73xX543C-k9Nee-78">
          <mxGeometry y="90" width="290" height="48" as="geometry" />
        </mxCell>
        <mxCell id="qRkvfq73xX543C-k9Nee-82" value="Extends" style="endArrow=block;endSize=16;endFill=0;html=1;rounded=0;fontSize=22;" edge="1" parent="WIyWlLk6GJQsqaUBKTNV-1">
          <mxGeometry width="160" relative="1" as="geometry">
            <mxPoint x="1610" y="870" as="sourcePoint" />
            <mxPoint x="1761" y="760" as="targetPoint" />
            <Array as="points">
              <mxPoint x="1610" y="820" />
              <mxPoint x="1761" y="820" />
            </Array>
          </mxGeometry>
        </mxCell>
        <mxCell id="qRkvfq73xX543C-k9Nee-83" value="Extends" style="endArrow=block;endSize=16;endFill=0;html=1;rounded=0;fontSize=22;" edge="1" parent="WIyWlLk6GJQsqaUBKTNV-1">
          <mxGeometry width="160" relative="1" as="geometry">
            <mxPoint x="1920" y="870" as="sourcePoint" />
            <mxPoint x="1760" y="760" as="targetPoint" />
            <Array as="points">
              <mxPoint x="1920" y="820" />
              <mxPoint x="1760" y="820" />
            </Array>
          </mxGeometry>
        </mxCell>
        <mxCell id="qRkvfq73xX543C-k9Nee-84" value="1" style="endArrow=open;html=1;endSize=12;startArrow=diamondThin;startSize=14;startFill=0;edgeStyle=orthogonalEdgeStyle;align=left;verticalAlign=bottom;rounded=0;fontSize=22;entryX=0.5;entryY=0;entryDx=0;entryDy=0;" edge="1" parent="WIyWlLk6GJQsqaUBKTNV-1" target="qRkvfq73xX543C-k9Nee-68">
          <mxGeometry x="-1" y="3" relative="1" as="geometry">
            <mxPoint x="1040" y="399.5" as="sourcePoint" />
            <mxPoint x="1200" y="399.5" as="targetPoint" />
          </mxGeometry>
        </mxCell>
        <mxCell id="qRkvfq73xX543C-k9Nee-85" value="Power" style="swimlane;fontStyle=1;align=center;verticalAlign=top;childLayout=stackLayout;horizontal=1;startSize=26;horizontalStack=0;resizeParent=1;resizeParentMax=0;resizeLast=0;collapsible=1;marginBottom=0;fontSize=22;fillColor=#fff2cc;strokeColor=#d6b656;" vertex="1" parent="WIyWlLk6GJQsqaUBKTNV-1">
          <mxGeometry x="1960" y="550" width="240" height="182" as="geometry" />
        </mxCell>
        <mxCell id="qRkvfq73xX543C-k9Nee-86" value="- firm: stringÂ " style="text;strokeColor=none;fillColor=none;align=left;verticalAlign=top;spacingLeft=4;spacingRight=4;overflow=hidden;rotatable=0;points=[[0,0.5],[1,0.5]];portConstraint=eastwest;fontSize=22;" vertex="1" parent="qRkvfq73xX543C-k9Nee-85">
          <mxGeometry y="26" width="240" height="26" as="geometry" />
        </mxCell>
        <mxCell id="qRkvfq73xX543C-k9Nee-87" value="- W: intÂ " style="text;strokeColor=none;fillColor=none;align=left;verticalAlign=top;spacingLeft=4;spacingRight=4;overflow=hidden;rotatable=0;points=[[0,0.5],[1,0.5]];portConstraint=eastwest;fontSize=22;" vertex="1" parent="qRkvfq73xX543C-k9Nee-85">
          <mxGeometry y="52" width="240" height="26" as="geometry" />
        </mxCell>
        <mxCell id="qRkvfq73xX543C-k9Nee-89" value="" style="line;strokeWidth=1;fillColor=none;align=left;verticalAlign=middle;spacingTop=-1;spacingLeft=3;spacingRight=3;rotatable=0;labelPosition=right;points=[];portConstraint=eastwest;fontSize=22;" vertex="1" parent="qRkvfq73xX543C-k9Nee-85">
          <mxGeometry y="78" width="240" height="8" as="geometry" />
        </mxCell>
        <mxCell id="qRkvfq73xX543C-k9Nee-116" value="+ ctor()" style="text;strokeColor=none;fillColor=none;align=left;verticalAlign=top;spacingLeft=4;spacingRight=4;overflow=hidden;rotatable=0;points=[[0,0.5],[1,0.5]];portConstraint=eastwest;fontSize=22;" vertex="1" parent="qRkvfq73xX543C-k9Nee-85">
          <mxGeometry y="86" width="240" height="48" as="geometry" />
        </mxCell>
        <mxCell id="qRkvfq73xX543C-k9Nee-90" value="+ ctor(string,int)" style="text;strokeColor=none;fillColor=none;align=left;verticalAlign=top;spacingLeft=4;spacingRight=4;overflow=hidden;rotatable=0;points=[[0,0.5],[1,0.5]];portConstraint=eastwest;fontSize=22;" vertex="1" parent="qRkvfq73xX543C-k9Nee-85">
          <mxGeometry y="134" width="240" height="48" as="geometry" />
        </mxCell>
        <mxCell id="qRkvfq73xX543C-k9Nee-91" value="Cooling" style="swimlane;fontStyle=1;align=center;verticalAlign=top;childLayout=stackLayout;horizontal=1;startSize=26;horizontalStack=0;resizeParent=1;resizeParentMax=0;resizeLast=0;collapsible=1;marginBottom=0;fontSize=22;fillColor=#fff2cc;strokeColor=#d6b656;" vertex="1" parent="WIyWlLk6GJQsqaUBKTNV-1">
          <mxGeometry x="2241" y="550" width="240" height="208" as="geometry" />
        </mxCell>
        <mxCell id="qRkvfq73xX543C-k9Nee-92" value="- firm: stringÂ " style="text;strokeColor=none;fillColor=none;align=left;verticalAlign=top;spacingLeft=4;spacingRight=4;overflow=hidden;rotatable=0;points=[[0,0.5],[1,0.5]];portConstraint=eastwest;fontSize=22;" vertex="1" parent="qRkvfq73xX543C-k9Nee-91">
          <mxGeometry y="26" width="240" height="26" as="geometry" />
        </mxCell>
        <mxCell id="qRkvfq73xX543C-k9Nee-93" value="- compatibility: stringÂ " style="text;strokeColor=none;fillColor=none;align=left;verticalAlign=top;spacingLeft=4;spacingRight=4;overflow=hidden;rotatable=0;points=[[0,0.5],[1,0.5]];portConstraint=eastwest;fontSize=22;" vertex="1" parent="qRkvfq73xX543C-k9Nee-91">
          <mxGeometry y="52" width="240" height="26" as="geometry" />
        </mxCell>
        <mxCell id="qRkvfq73xX543C-k9Nee-94" value="- size: intÂ " style="text;strokeColor=none;fillColor=none;align=left;verticalAlign=top;spacingLeft=4;spacingRight=4;overflow=hidden;rotatable=0;points=[[0,0.5],[1,0.5]];portConstraint=eastwest;fontSize=22;" vertex="1" parent="qRkvfq73xX543C-k9Nee-91">
          <mxGeometry y="78" width="240" height="26" as="geometry" />
        </mxCell>
        <mxCell id="qRkvfq73xX543C-k9Nee-95" value="" style="line;strokeWidth=1;fillColor=none;align=left;verticalAlign=middle;spacingTop=-1;spacingLeft=3;spacingRight=3;rotatable=0;labelPosition=right;points=[];portConstraint=eastwest;fontSize=22;" vertex="1" parent="qRkvfq73xX543C-k9Nee-91">
          <mxGeometry y="104" width="240" height="8" as="geometry" />
        </mxCell>
        <mxCell id="qRkvfq73xX543C-k9Nee-96" value="+ ctor()" style="text;strokeColor=none;fillColor=none;align=left;verticalAlign=top;spacingLeft=4;spacingRight=4;overflow=hidden;rotatable=0;points=[[0,0.5],[1,0.5]];portConstraint=eastwest;fontSize=22;" vertex="1" parent="qRkvfq73xX543C-k9Nee-91">
          <mxGeometry y="112" width="240" height="48" as="geometry" />
        </mxCell>
        <mxCell id="qRkvfq73xX543C-k9Nee-117" value="+ ctor(string,string,int)" style="text;strokeColor=none;fillColor=none;align=left;verticalAlign=top;spacingLeft=4;spacingRight=4;overflow=hidden;rotatable=0;points=[[0,0.5],[1,0.5]];portConstraint=eastwest;fontSize=22;" vertex="1" parent="qRkvfq73xX543C-k9Nee-91">
          <mxGeometry y="160" width="240" height="48" as="geometry" />
        </mxCell>
        <mxCell id="qRkvfq73xX543C-k9Nee-97" value="Air" style="swimlane;fontStyle=1;align=center;verticalAlign=top;childLayout=stackLayout;horizontal=1;startSize=26;horizontalStack=0;resizeParent=1;resizeParentMax=0;resizeLast=0;collapsible=1;marginBottom=0;fontSize=22;fillColor=#fff2cc;strokeColor=#d6b656;" vertex="1" parent="WIyWlLk6GJQsqaUBKTNV-1">
          <mxGeometry x="2150" y="870" width="260" height="138" as="geometry" />
        </mxCell>
        <mxCell id="qRkvfq73xX543C-k9Nee-98" value="- R:int" style="text;strokeColor=none;fillColor=none;align=left;verticalAlign=top;spacingLeft=4;spacingRight=4;overflow=hidden;rotatable=0;points=[[0,0.5],[1,0.5]];portConstraint=eastwest;fontSize=22;" vertex="1" parent="qRkvfq73xX543C-k9Nee-97">
          <mxGeometry y="26" width="260" height="26" as="geometry" />
        </mxCell>
        <mxCell id="qRkvfq73xX543C-k9Nee-99" value="" style="line;strokeWidth=1;fillColor=none;align=left;verticalAlign=middle;spacingTop=-1;spacingLeft=3;spacingRight=3;rotatable=0;labelPosition=right;points=[];portConstraint=eastwest;fontSize=22;" vertex="1" parent="qRkvfq73xX543C-k9Nee-97">
          <mxGeometry y="52" width="260" height="8" as="geometry" />
        </mxCell>
        <mxCell id="qRkvfq73xX543C-k9Nee-100" value="+ ctor()" style="text;strokeColor=none;fillColor=none;align=left;verticalAlign=top;spacingLeft=4;spacingRight=4;overflow=hidden;rotatable=0;points=[[0,0.5],[1,0.5]];portConstraint=eastwest;fontSize=22;" vertex="1" parent="qRkvfq73xX543C-k9Nee-97">
          <mxGeometry y="60" width="260" height="30" as="geometry" />
        </mxCell>
        <mxCell id="qRkvfq73xX543C-k9Nee-123" value="+ ctor(string,string,int,int)" style="text;strokeColor=none;fillColor=none;align=left;verticalAlign=top;spacingLeft=4;spacingRight=4;overflow=hidden;rotatable=0;points=[[0,0.5],[1,0.5]];portConstraint=eastwest;fontSize=22;" vertex="1" parent="qRkvfq73xX543C-k9Nee-97">
          <mxGeometry y="90" width="260" height="48" as="geometry" />
        </mxCell>
        <mxCell id="qRkvfq73xX543C-k9Nee-101" value="Water" style="swimlane;fontStyle=1;align=center;verticalAlign=top;childLayout=stackLayout;horizontal=1;startSize=26;horizontalStack=0;resizeParent=1;resizeParentMax=0;resizeLast=0;collapsible=1;marginBottom=0;fontSize=22;fillColor=#fff2cc;strokeColor=#d6b656;" vertex="1" parent="WIyWlLk6GJQsqaUBKTNV-1">
          <mxGeometry x="2450" y="870" width="270" height="138" as="geometry" />
        </mxCell>
        <mxCell id="qRkvfq73xX543C-k9Nee-102" value="- fast:int" style="text;strokeColor=none;fillColor=none;align=left;verticalAlign=top;spacingLeft=4;spacingRight=4;overflow=hidden;rotatable=0;points=[[0,0.5],[1,0.5]];portConstraint=eastwest;fontSize=22;" vertex="1" parent="qRkvfq73xX543C-k9Nee-101">
          <mxGeometry y="26" width="270" height="26" as="geometry" />
        </mxCell>
        <mxCell id="qRkvfq73xX543C-k9Nee-103" value="" style="line;strokeWidth=1;fillColor=none;align=left;verticalAlign=middle;spacingTop=-1;spacingLeft=3;spacingRight=3;rotatable=0;labelPosition=right;points=[];portConstraint=eastwest;fontSize=22;" vertex="1" parent="qRkvfq73xX543C-k9Nee-101">
          <mxGeometry y="52" width="270" height="8" as="geometry" />
        </mxCell>
        <mxCell id="qRkvfq73xX543C-k9Nee-104" value="+ ctor()" style="text;strokeColor=none;fillColor=none;align=left;verticalAlign=top;spacingLeft=4;spacingRight=4;overflow=hidden;rotatable=0;points=[[0,0.5],[1,0.5]];portConstraint=eastwest;fontSize=22;" vertex="1" parent="qRkvfq73xX543C-k9Nee-101">
          <mxGeometry y="60" width="270" height="30" as="geometry" />
        </mxCell>
        <mxCell id="qRkvfq73xX543C-k9Nee-124" value="+ ctor(string,string,int,int)" style="text;strokeColor=none;fillColor=none;align=left;verticalAlign=top;spacingLeft=4;spacingRight=4;overflow=hidden;rotatable=0;points=[[0,0.5],[1,0.5]];portConstraint=eastwest;fontSize=22;" vertex="1" parent="qRkvfq73xX543C-k9Nee-101">
          <mxGeometry y="90" width="270" height="48" as="geometry" />
        </mxCell>
        <mxCell id="qRkvfq73xX543C-k9Nee-105" value="Extends" style="endArrow=block;endSize=16;endFill=0;html=1;rounded=0;fontSize=22;" edge="1" parent="WIyWlLk6GJQsqaUBKTNV-1">
          <mxGeometry width="160" relative="1" as="geometry">
            <mxPoint x="2241" y="872" as="sourcePoint" />
            <mxPoint x="2392" y="742" as="targetPoint" />
            <Array as="points">
              <mxPoint x="2241" y="822" />
              <mxPoint x="2392" y="822" />
            </Array>
          </mxGeometry>
        </mxCell>
        <mxCell id="qRkvfq73xX543C-k9Nee-106" value="Extends" style="endArrow=block;endSize=16;endFill=0;html=1;rounded=0;fontSize=22;" edge="1" parent="WIyWlLk6GJQsqaUBKTNV-1">
          <mxGeometry width="160" relative="1" as="geometry">
            <mxPoint x="2560" y="872" as="sourcePoint" />
            <mxPoint x="2390" y="742" as="targetPoint" />
            <Array as="points">
              <mxPoint x="2560" y="822" />
              <mxPoint x="2390" y="822" />
            </Array>
          </mxGeometry>
        </mxCell>
        <mxCell id="qRkvfq73xX543C-k9Nee-107" value="1" style="endArrow=open;html=1;endSize=12;startArrow=diamondThin;startSize=14;startFill=0;edgeStyle=orthogonalEdgeStyle;align=left;verticalAlign=bottom;rounded=0;fontSize=22;entryX=0.5;entryY=0;entryDx=0;entryDy=0;" edge="1" parent="WIyWlLk6GJQsqaUBKTNV-1" target="qRkvfq73xX543C-k9Nee-85">
          <mxGeometry x="-1" y="3" relative="1" as="geometry">
            <mxPoint x="1040" y="360" as="sourcePoint" />
            <mxPoint x="1760" y="510.5" as="targetPoint" />
          </mxGeometry>
        </mxCell>
        <mxCell id="qRkvfq73xX543C-k9Nee-108" value="1" style="endArrow=open;html=1;endSize=12;startArrow=diamondThin;startSize=14;startFill=0;edgeStyle=orthogonalEdgeStyle;align=left;verticalAlign=bottom;rounded=0;fontSize=22;entryX=0.581;entryY=-0.009;entryDx=0;entryDy=0;entryPerimeter=0;" edge="1" parent="WIyWlLk6GJQsqaUBKTNV-1" target="qRkvfq73xX543C-k9Nee-91">
          <mxGeometry x="-1" y="3" relative="1" as="geometry">
            <mxPoint x="1040" y="320" as="sourcePoint" />
            <mxPoint x="2080" y="510" as="targetPoint" />
          </mxGeometry>
        </mxCell>
      </root>
    </mxGraphModel>
  </diagram>
</mxfile>
